<?xml version="1.0" encoding="utf-8"?>
<!-- Generator: Adobe Illustrator 23.0.1, SVG Export Plug-In . SVG Version: 6.00 Build 0)  -->
<svg class='blobFace' width="106" height="106" viewBox="0 0 110 110" fill="none" xmlns="http://www.w3.org/2000/svg">
	<path d="M52.51 105.02C81.5105 105.02 105.02 81.5105 105.02 52.51C105.02 23.5095 81.5105 0 52.51 0C23.5095 0 0 23.5095 0 52.51C0 81.5105 23.5095 105.02 52.51 105.02Z" fill="#2B4C68" stroke="white" stroke-width="2"/>
	<path d="M66.4899 35.78C68.3345 35.78 69.8299 34.2846 69.8299 32.44C69.8299 30.5954 68.3345 29.1 66.4899 29.1C64.6453 29.1 63.1499 30.5954 63.1499 32.44C63.1499 34.2846 64.6453 35.78 66.4899 35.78Z" fill="white"/>
	<path d="M18.8498 30.74C20.6944 30.74 22.1898 29.2446 22.1898 27.4C22.1898 25.5554 20.6944 24.06 18.8498 24.06C17.0051 24.06 15.5098 25.5554 15.5098 27.4C15.5098 29.2446 17.0051 30.74 18.8498 30.74Z" fill="white"/>
	<path d="M40.3398 51.92C46.9398 52.62 52.9898 46.92 54.1598 39.07C54.2298 38.63 53.8998 38.23 53.4598 38.19L30.3698 35.75C29.9298 35.7 29.5298 36.03 29.4998 36.47C29.0198 44.39 33.7498 51.22 40.3398 51.92Z" fill="white"/>
</svg>